<svg xmlns="http://www.w3.org/2000/svg" xmlns:xlink="http://www.w3.org/1999/xlink" version="1.1" id="Layer_1" x="0px" y="0px" style="enable-background:new 0 0 792 612;" xml:space="preserve" viewBox="128.5 249.15 481.84 105.83">
<g>
	<path d="M525.61,275.4c5.59,0,9.97-4.26,9.97-9.71c0-5.45-4.39-9.84-9.97-9.84c-5.45,0-9.97,4.39-9.97,9.84   C515.64,271.15,520.16,275.4,525.61,275.4"/>
	<path d="M292.72,290.34c-15.04-7.1-23.82-10.79-23.82-20.31c0-7.95,8.01-12.07,16.83-12.07c9.65,0,18.8,8.77,23.31,18.37   l12.27-13.61c0,0-13.78-13.57-36.45-13.57c-13.92,0-29.94,9.52-29.94,25.99c0,14.06,4.75,22.44,28.12,32.81   c16.25,7.24,24.45,11.79,24.45,21.87c0,9.8-6.85,15.75-18.67,15.75c-14.26,0-18.43-12.23-22.71-22.4l-16.24,17.42   c7.52,9.41,25.39,14.37,38.28,14.37c24.31,0,35.32-16.48,35.19-31.25C323.21,306.25,311.52,299.15,292.72,290.34"/>
	<path d="M576.32,282.54c-17.61,0.18-33.23,14.68-33.01,36.41c0.22,22.01,16.13,36.2,33.74,36.02c18.04-0.18,33.51-14.68,33.29-36.7   C610.13,296.55,594.36,282.36,576.32,282.54 M576.69,347.59c-11.5,0.12-15.3-10.64-15.49-28.68c-0.18-18.32,3.54-28.87,15.05-28.99   c10.93-0.11,15.59,10.36,15.77,28.68C592.21,336.64,587.63,347.48,576.69,347.59"/>
	<path d="M428.99,331.36l0.01-47.4l-20.15,5.6l2.07,5.29c1.55,3.97,2.36,8.18,2.46,12.43l-0.02,0.01v8.05v21.82l0,0.17   c-3.58,3.72-7.39,6.01-12.21,6.01c-7.39-0.43-11.93-5.25-11.93-19.59v-39.08h-40.6v-17.33l-15.04,5.83v11.54h-10.36v8.86h10.36   v0.04v41.2c0,11.79,5,20.17,14.66,20.17c9.15,0,15.16-8.57,16.02-11.62c-10.13,2.66-15.64-3.15-15.64-12.1l0.04-37.65h24.95v21.75   v16.06h0c0,0,0,0.01,0,0.01v0.12c0,13.21,5.54,23.29,20.59,23.29c8.1,0,15.04-4.71,20.17-10.27l0.06-0.01l3.02,8.16h17.67   l-3.22-7.4C429.97,340.91,428.98,336.16,428.99,331.36"/>
	<path d="M501.57,331.93l0.01-47.96l-0.07,0.03l0.01-33.27l-20.15,5.6l2.07,5.29c1.47,3.77,2.27,7.75,2.43,11.79v11.69   c-4.26-1.7-9.38-2.56-15.06-2.56c-18.04,0-32.81,14.49-32.81,36.64c0,20.88,12.64,35.79,31.25,35.79c8.38,0,14.2-4.83,17.61-8.52   c0.22-0.29,0.47-0.61,0.73-0.93l2.25,7.19h18.42l-2.77-5.15C502.92,342.75,501.57,337.38,501.57,331.93 M485.87,337.28   c0,2.53-1.64,4.78-4.06,5.53c-1.35,0.41-2.71,0.65-4.04,0.65c-14.35,0-23.15-14.06-23.15-29.4c0-15.77,4.55-24.15,15.62-24.15   c7.95,0,15.62,5.82,15.62,12.07V337.28z"/>
	<path d="M533.68,335.09l-0.05-18.32l0.01-33.15l-20.15,5.6l2.07,5.29c1.66,4.24,2.5,8.76,2.5,13.32l-0.07,27.01   c-0.11,2.78-0.4,5.54-0.88,8.28l-1.68,9.58h20.8l-1.68-9.58C534.09,340.47,533.8,337.79,533.68,335.09"/>
</g>
<polygon points="246.83,302.41 246.82,300.38 201.47,293.53 217.99,250.75 216.22,249.74 187.62,285.59 158.82,249.89   157.07,250.91 173.81,293.61 128.5,300.7 128.51,302.73 173.86,309.58 157.34,352.37 159.1,353.38 187.71,317.52 216.5,353.22   218.26,352.2 201.51,309.5 "/>
</svg>